<?xml version="1.0" encoding="utf-8"?>
<!-- Generator: Adobe Illustrator 18.0.0, SVG Export Plug-In . SVG Version: 6.00 Build 0)  -->
<!DOCTYPE svg PUBLIC "-//W3C//DTD SVG 1.1//EN" "http://www.w3.org/Graphics/SVG/1.1/DTD/svg11.dtd">
<svg version="1.1" id="Layer_1" xmlns="http://www.w3.org/2000/svg" xmlns:xlink="http://www.w3.org/1999/xlink" x="0px" y="0px"
	 viewBox="123.3 0 595.3 595.3" enable-background="new 123.3 0 595.3 595.3" xml:space="preserve">
<circle fill="#324A5E" cx="420.9" cy="297.6" r="297.6"/>
<g>
	<path fill="#FFD05B" d="M595.5,246.1c0,26.5-18.1,56.6-40.4,56.6c-22.4,0-40.4-29.9-40.4-56.6s18.1-39.7,40.4-39.7
		C577.6,206.3,595.5,219.4,595.5,246.1z"/>
	<path fill="#FFD05B" d="M645.1,371.1c-25.5,10.8-56.6,17.8-89.9,17.8c-33.5,0-64.5-7-89.9-17.8c14.4-29.4,49.2-57.1,89.9-57.1
		C596,314,630.9,341.7,645.1,371.1z"/>
	<path fill="#FFD05B" d="M327.1,246.1c0,26.5-18.1,56.6-40.4,56.6c-22.4,0-40.4-29.9-40.4-56.6s18.1-39.7,40.4-39.7
		C309,206.3,327.1,219.4,327.1,246.1z"/>
	<path fill="#FFD05B" d="M376.7,371.1c-25.5,10.8-56.6,17.8-89.9,17.8c-33.5,0-64.5-7-89.9-17.8c14.4-29.4,49.2-57.1,89.9-57.1
		S362.5,341.7,376.7,371.1z"/>
</g>
<g>
	<path fill="#FF7058" d="M484.4,216.8c0,41.7-28.4,88.6-63.4,88.6s-63.4-47-63.4-88.6c0-41.7,28.4-62.4,63.4-62.4
		C456,154.5,484.4,175,484.4,216.8z"/>
	<path fill="#FF7058" d="M562.2,413.1c-40,16.8-88.7,27.9-141.2,27.9s-101-10.9-141.2-27.9c22.4-46.2,77.1-89.6,141.2-89.6
		S539.6,366.7,562.2,413.1z"/>
</g>
</svg>
