<?xml version="1.0" encoding="utf-8"?>
<!-- Generator: Adobe Illustrator 18.0.0, SVG Export Plug-In . SVG Version: 6.00 Build 0)  -->
<!DOCTYPE svg PUBLIC "-//W3C//DTD SVG 1.1//EN" "http://www.w3.org/Graphics/SVG/1.1/DTD/svg11.dtd">
<svg version="1.1" id="Layer_1" xmlns="http://www.w3.org/2000/svg" xmlns:xlink="http://www.w3.org/1999/xlink" x="0px" y="0px"
	 viewBox="123.3 0 595.3 595.3" enable-background="new 123.3 0 595.3 595.3" xml:space="preserve">
<circle fill="#324A5E" cx="420.9" cy="297.6" r="297.6"/>
<rect x="259.6" y="223.2" fill="#EFEFEF" width="322.8" height="243.2"/>
<rect x="259.6" y="151.1" fill="#84DBFF" width="322.8" height="72.1"/>
<g>
	<path fill="#FFFFFF" d="M294,128.8c-3.7,0-7,3.3-7,7V167c0,3.7,3.3,7,7,7c3.7,0,7-3.3,7-7v-31.2C300.5,131.6,297.7,128.8,294,128.8
		z"/>
	<path fill="#FFFFFF" d="M344.7,128.8c-3.7,0-7,3.3-7,7V167c0,3.7,3.3,7,7,7s7-3.3,7-7v-31.2C351.7,131.6,348.4,128.8,344.7,128.8z"
		/>
	<path fill="#FFFFFF" d="M395.4,128.8L395.4,128.8c-3.7,0-7,3.3-7,7V167c0,3.7,3.3,7,7,7l0,0c3.7,0,7-3.3,7-7v-31.2
		C402.3,131.6,399.1,128.8,395.4,128.8z"/>
	<path fill="#FFFFFF" d="M446.5,128.8L446.5,128.8c-3.7,0-7,3.3-7,7V167c0,3.7,3.3,7,7,7l0,0c3.7,0,7-3.3,7-7v-31.2
		C453,131.6,450.2,128.8,446.5,128.8z"/>
	<path fill="#FFFFFF" d="M497.2,128.8L497.2,128.8c-3.7,0-7,3.3-7,7V167c0,3.7,3.3,7,7,7l0,0c3.7,0,7-3.3,7-7v-31.2
		C504.2,131.6,500.9,128.8,497.2,128.8z"/>
	<path fill="#FFFFFF" d="M547.9,128.8c-3.7,0-7,3.3-7,7V167c0,3.7,3.3,7,7,7c3.7,0,7-3.3,7-7v-31.2
		C554.9,131.6,552.1,128.8,547.9,128.8z"/>
	<circle fill="#FFFFFF" cx="318.6" cy="273.9" r="18.1"/>
	<circle fill="#FFFFFF" cx="387" cy="273.9" r="18.1"/>
</g>
<circle fill="#FF7058" cx="454.9" cy="273.9" r="18.1"/>
<g>
	<circle fill="#FFFFFF" cx="523.3" cy="273.9" r="18.1"/>
	<circle fill="#FFFFFF" cx="318.6" cy="339" r="18.1"/>
	<circle fill="#FFFFFF" cx="387" cy="339" r="18.1"/>
</g>
<circle fill="#FF7058" cx="454.9" cy="339" r="18.1"/>
<g>
	<circle fill="#FFFFFF" cx="523.3" cy="339" r="18.1"/>
	<circle fill="#FFFFFF" cx="318.6" cy="404.1" r="18.1"/>
	<circle fill="#FFFFFF" cx="387" cy="404.1" r="18.1"/>
</g>
<circle fill="#FF7058" cx="454.9" cy="404.1" r="18.1"/>
<circle fill="#FFFFFF" cx="523.3" cy="404.1" r="18.1"/>
</svg>
