<?xml version="1.0" encoding="utf-8"?>
<!-- Generator: Adobe Illustrator 18.0.0, SVG Export Plug-In . SVG Version: 6.00 Build 0)  -->
<!DOCTYPE svg PUBLIC "-//W3C//DTD SVG 1.1//EN" "http://www.w3.org/Graphics/SVG/1.1/DTD/svg11.dtd">
<svg version="1.1" id="Layer_1" xmlns="http://www.w3.org/2000/svg" xmlns:xlink="http://www.w3.org/1999/xlink" x="0px" y="0px"
	 viewBox="123.3 0 595.3 595.3" enable-background="new 123.3 0 595.3 595.3" xml:space="preserve">
<path fill="#25B7D3" d="M718.6,297.6C718.6,133.3,585.3,0,420.9,0S123.3,133.3,123.3,297.6s133.3,297.6,297.6,297.6
	S718.6,462,718.6,297.6z"/>
<path fill="#383838" d="M209.2,351.1l5.8,0.7c22.3-2,100.5-10.6,105.9-11.2c11.5-1.1,12.2-3.8,12.2-3.8v-65.4l-94.7,4.7V299
	c0,0,0,19.7-17.8,22l-6.7,0.7c0,0-4.8,1.4-4.8,6.7C209.2,333.5,209.2,351.1,209.2,351.1z"/>
<path fill="#2B2A2A" d="M209.2,351.1l5.8,0.7c22.3-2,100.5-10.6,105.9-11.2c11.5-1.1,12.2-3.8,12.2-3.8l-88.9-60l-5.8-0.7V299
	c0,0,0,19.7-17.8,22l-6.7,0.7c0,0-4.8,1.4-4.8,6.7C209.2,333.5,209.2,351.1,209.2,351.1z"/>
<path fill="#424242" d="M215,351.9c0,0,105.3-9.8,111.7-10.4c11.5-1.1,12.2-3.8,12.2-3.8v-66.8c0,0-3.4,1.8-10.3,1.8l-84.2,4.3v22.8
	c0,0,0,19.7-17.8,22l-6.7,0.7c0,0-4.8,1.4-4.8,6.7C215,334.2,215,351.9,215,351.9z"/>
<polygon fill="#C9C9C5" points="373.9,375.5 214.8,332.4 214.8,329.2 380.4,369 "/>
<polygon fill="#191919" points="364.3,369.4 214.8,332.4 214.8,344.7 364.3,384.1 "/>
<polygon fill="#F2F2ED" points="408.6,357.6 244.4,323.6 214.8,329.2 373.8,367.9 "/>
<polygon fill="#3A3A3A" points="266.5,362.8 278.8,448.6 288.1,451.9 298.5,449 308.8,373.1 288.3,368.1 "/>
<polygon fill="#191919" points="266.5,362.8 278.8,448.6 288.1,451.9 288.3,368.1 "/>
<polygon fill="#AF9651" points="281.2,471.8 278.8,448.6 288.1,451.9 298.5,449 294.6,472.3 288,474 "/>
<polygon fill="#99833D" points="281.2,471.8 278.8,448.6 288.1,451.9 288,474 "/>
<polygon fill="#3A3A3A" points="524.1,337.3 536.4,423.2 545.7,426.6 556,423.7 566.3,347.7 545.8,342.7 "/>
<polygon fill="#191919" points="524.1,337.3 536.4,423.2 545.7,426.6 545.8,342.7 "/>
<polygon fill="#AF9651" points="538.8,446.5 536.4,423.2 545.7,426.6 556,423.7 552.2,447 545.6,448.6 "/>
<polygon fill="#99833D" points="538.8,446.5 536.4,423.2 545.7,426.6 545.6,448.6 "/>
<polygon fill="#3A3A3A" points="326.9,480.5 357.8,492.5 385.3,489 385.3,496.7 357.7,501.2 326.9,488.5 "/>
<polygon fill="#424242" points="385.3,489 354.2,476.8 326.9,480.5 357.8,492.5 "/>
<g>
	<polygon fill="#262626" points="326.9,480.5 357.8,492.5 357.7,501.2 326.9,488.5 	"/>
	<polygon fill="#262626" points="349.1,484.8 343.4,482.6 343.4,385.6 349.1,385.2 	"/>
</g>
<polygon fill="#3A3A3A" points="354.4,484.3 348.6,484.8 348.6,385.2 354.4,385.2 "/>
<polygon fill="#262626" points="363.2,488.5 357.6,486.3 357.6,389.4 363.2,389.1 "/>
<polygon fill="#3A3A3A" points="368.4,487.9 362.6,488.5 362.6,389.1 368.4,389.1 "/>
<polygon fill="#2B2A2A" points="371.2,385.9 209.2,343.1 209.2,351.1 371.2,394 "/>
<path fill="#232323" d="M333.1,271.5l138.4-5.2c0,0,30.6,1.1,45.5,1.8c0,0,77.3,1.7,77.3,8.3v23.8l-208.4-13.7L333.1,271.5z"/>
<path fill="#471518" d="M329.6,272.4l138.4-5.2c0,0,30.6,1.1,45.3,1.8c0,0,77.3,1.7,77.3,8.3v23.8l-208.4-13.7L329.6,272.4z"/>
<g>
	<polygon fill="#191919" points="244.2,276.9 401.5,298.2 401.3,356.8 244.4,323.6 	"/>
	<path fill="#191919" d="M549.1,98.1c-0.8-1.7-6.1-1.7-6.1-1.7l-78.3-3.8L329.4,252.9l65.9,9.7l152-160.3
		C547.3,102.3,549.9,100.1,549.1,98.1z"/>
</g>
<path fill="#282828" d="M492.4,269.2c0,0,36.6-18,53.1-32.4c0,0,62.9-42.6,20.4-67.2c-15.7-9.1-56.4-9.7-55.8-22.6
	c0.2-6.5,37.1-44.6,37.1-44.6l-78.8-2.8L338.3,250.6l60.8,19L492.4,269.2z"/>
<path fill="#C55F2E" d="M396.1,282.8l82.1-5.4c0,0,11.3-1.7,20.2,1.7l18.6,0.7c0,0,29.3,0.7,42.1-0.4c16.7-1.4,2.4,19.6,2.4,19.6
	l-67.7,2L396.1,282.8z"/>
<path fill="#F78F50" d="M413.9,290.4l64.3-4.4c0,0,11.3-1.7,20.2,1.7l18.6,5.6c0,0,0.2,2.6,16.7-0.5c16.4-3.1,2.4,16,2.4,16
	l-42.2,0.7L413.9,290.4z"/>
<polygon fill="#04090D" points="449.3,147.7 482.8,238.6 483.9,245.9 502.6,293.8 511.4,294.5 491.4,243.9 487.5,237.5 451.4,147 
	"/>
<polygon fill="#585858" points="451.4,147 485,237.9 486.1,245.3 504.7,293.2 513.6,293.8 493.4,243.2 489.6,236.8 456.5,146.7 "/>
<path fill="#2B2A2A" d="M364,392.1l7.3,1.9c28.3-2.6,127-13.4,133.9-14c14.6-1.4,15.5-4.9,15.5-4.9l-112.4-75.8l-7.3-1v28.9
	c0,0,0,24.8-22.6,27.7l-8.4,1c0,0-6.1,1.9-6.1,8.4C363.8,370.7,364,392.1,364,392.1z"/>
<path fill="#232323" d="M526.3,291.4c0,0-0.5-1.6-2-2.4c0,0-1.7-2.3,0.8-2.9c0,0,9.6-2.4,19.4-3c0,0,47.3-3,48.2-6.6l-0.1,64.2
	c0,0-0.5,4.2-34.1,8.2c0,0-27,3.4-32.3,7.1L526.3,291.4z"/>
<path fill="#3A3A3A" d="M527.8,291.4c0,0-0.5-1.6-2-2.4c0,0-1.7-2.3,0.8-2.9c0,0,9.6-2.4,19.4-3c0,0,47.3-3,48.2-6.6l-0.1,64.2
	c0,0-0.5,4.2-34.1,8.2c0,0-27,3.4-32.3,7.1V291.4z"/>
<path fill="#383838" d="M364,392.1l7.3,1.9c28.3-2.6,127-13.4,133.9-14c14.6-1.4,15.5-4.9,15.5-4.9l7.1-84.1l-7.1,1.4L401,298.2
	v28.9c0,0,0,24.8-22.6,27.7l-8.4,1c0,0-6.1,1.9-6.1,8.4S364,392.1,364,392.1z"/>
<polygon fill="#3A3A3A" points="409.4,389.3 425,499.1 437,503.3 450.2,499.7 468.1,369.5 437.1,383.3 "/>
<polygon fill="#191919" points="409.4,389.3 425,499.1 437,503.3 437.1,380.1 "/>
<path fill="#424242" d="M371.2,394c0,0,133.2-12.4,141.2-13.2c14.6-1.4,15.5-4.9,15.5-4.9v-84.5c0,0-4.2,2.3-13.1,2.3l-106.5,5.4
	V328c0,0,0,24.8-22.6,27.7l-8.4,1c0,0-6.1,1.9-6.1,8.4C371.2,371.5,371.2,394,371.2,394z"/>
<polygon fill="#2D2D2D" points="401,298.2 244.2,276.9 310.8,273.4 486,294 "/>
<path fill="#191919" d="M314.9,278.7l14.8-31.4c0,0,49.3-9.8,88.4,10.8l-10.8,33.4L314.9,278.7z"/>
<polygon fill="#AF9651" points="428.1,528.7 425,499.1 437,503.3 450.2,499.7 445.3,529.3 436.9,531.5 "/>
<polygon fill="#99833D" points="428.1,528.7 425,499.1 437,503.3 436.9,531.5 "/>
<polygon fill="#AF9651" points="318.1,486.8 321.9,488.1 336,486.3 336,488.3 321.7,490.5 318.1,488.9 "/>
<polygon fill="#BCA15C" points="336,486.3 332.4,484.9 318.1,486.8 321.9,488.1 "/>
<polygon fill="#99833D" points="318.1,486.8 321.9,488.1 321.7,490.5 318.1,488.9 "/>
<polygon fill="#AF9651" points="336.7,494.9 340.3,496.2 354.5,494.4 354.5,496.3 340.3,498.6 336.7,496.9 "/>
<polygon fill="#BCA15C" points="354.5,494.4 350.9,492.8 336.7,494.9 340.3,496.2 "/>
<polygon fill="#99833D" points="336.7,494.9 340.3,496.2 340.3,498.6 336.7,496.9 "/>
<polygon fill="#AF9651" points="327.5,490.8 331.2,492.2 345.4,490.3 345.4,492.3 331.1,494.6 327.5,492.9 "/>
<polygon fill="#BCA15C" points="345.4,490.3 341.8,488.9 327.5,490.8 331.2,492.2 "/>
<polygon fill="#99833D" points="327.5,490.8 331.2,492.2 331.1,494.6 327.5,492.9 "/>
</svg>
