<?xml version="1.0" encoding="utf-8"?>
<!-- Generator: Adobe Illustrator 18.0.0, SVG Export Plug-In . SVG Version: 6.00 Build 0)  -->
<!DOCTYPE svg PUBLIC "-//W3C//DTD SVG 1.1//EN" "http://www.w3.org/Graphics/SVG/1.1/DTD/svg11.dtd">
<svg version="1.1" id="Layer_1" xmlns="http://www.w3.org/2000/svg" xmlns:xlink="http://www.w3.org/1999/xlink" x="0px" y="0px"
	 viewBox="123.3 0 595.3 595.3" enable-background="new 123.3 0 595.3 595.3" xml:space="preserve">
<circle fill="#FF6D3B" cx="420.9" cy="297.6" r="297.6"/>
<g>
	<polygon fill="#242D3C" points="514.7,490.3 445.2,324.2 426,332.5 491.4,490.3 	"/>
	<polygon fill="#242D3C" points="350.5,490.3 415.9,332.5 396.7,324.2 327.1,490.3 	"/>
	<rect x="371.1" y="418.9" fill="#242D3C" width="99.6" height="12.7"/>
</g>
<rect x="236.6" y="362" fill="#3E4959" width="368.7" height="17.8"/>
<rect x="363.3" y="128.1" fill="#242D3C" width="115.2" height="17.8"/>
<rect x="261.6" y="145.9" fill="#FFFFFF" width="318.8" height="216.1"/>
<rect x="261.6" y="303.4" fill="#21D8DE" width="318.8" height="58.6"/>
<g>
	<polygon fill="#3E4959" points="396.9,275.6 369.1,303.4 424.8,303.4 	"/>
	<polygon fill="#3E4959" points="523.4,260.5 480.5,303.4 566.3,303.4 	"/>
</g>
<polygon fill="#242D3C" points="337.6,237.2 271.4,303.4 403.9,303.4 "/>
<circle fill="#FFD55C" cx="361.9" cy="192.9" r="20.5"/>
<g>
	<path fill="#D9D8D7" d="M517.5,187.1c-0.4,0-0.9,0-1.3,0.1c0,0,0,0,0-0.1c0-5.7-4.6-10.3-10.3-10.3c-4.8,0-8.9,3.3-10,7.8
		c-0.5-0.1-1.1-0.2-1.6-0.2c-4.2,0-7.6,3.4-7.6,7.6c0,4.2,3.4,7.6,7.6,7.6h23.3c3.4,0,6.2-2.8,6.2-6.2
		C523.7,189.9,520.9,187.1,517.5,187.1z"/>
	<path fill="#D9D8D7" d="M410.7,218.2C410.7,218.2,410.7,218.2,410.7,218.2c0-0.2,0-0.3,0-0.5c0-9.7,7.9-17.6,17.6-17.6
		c7.9,0,14.7,5.3,16.8,12.5c1.3-0.6,2.8-1,4.4-1c5.7,0,10.2,4.6,10.2,10.3c0,1.3-0.2,2.5-0.7,3.7c0.1,0,0.2,0,0.3,0
		c3.6,0,6.6,2.9,6.6,6.6c0,3.6-2.9,6.6-6.6,6.6h-48.7c-5.7,0-10.3-4.6-10.3-10.3C400.5,222.8,405.1,218.2,410.7,218.2z"/>
</g>
</svg>
