<?xml version="1.0" encoding="utf-8"?>
<!-- Generator: Adobe Illustrator 18.0.0, SVG Export Plug-In . SVG Version: 6.00 Build 0)  -->
<!DOCTYPE svg PUBLIC "-//W3C//DTD SVG 1.1//EN" "http://www.w3.org/Graphics/SVG/1.1/DTD/svg11.dtd">
<svg version="1.1" id="Layer_1" xmlns="http://www.w3.org/2000/svg" xmlns:xlink="http://www.w3.org/1999/xlink" x="0px" y="0px"
	 viewBox="123.3 0 595.3 595.3" enable-background="new 123.3 0 595.3 595.3" xml:space="preserve">
<path fill="#334D5C" d="M718.6,297.6C718.6,133.3,585.3,0,420.9,0S123.3,133.3,123.3,297.6s133.3,297.6,297.6,297.6
	S718.6,462,718.6,297.6z"/>
<g>
	<rect x="469.7" y="207.2" fill="#F2F1DF" width="45.7" height="180.9"/>
	<rect x="422" y="207.2" fill="#F2F1DF" width="45.7" height="180.9"/>
	<rect x="374.4" y="207.2" fill="#F2F1DF" width="45.7" height="180.9"/>
	<rect x="326.8" y="207.2" fill="#F2F1DF" width="45.7" height="180.9"/>
</g>
<rect x="409.1" y="207.3" fill="#3A3A38" width="24.1" height="120"/>
<rect x="409.1" y="207.3" fill="#565656" width="5.2" height="120"/>
<polygon fill="#282828" points="413.5,322.5 428.6,322.5 433.2,327.3 409.1,327.3 "/>
<rect x="413.6" y="207.3" fill="#444443" width="14.9" height="115.2"/>
<rect x="361.2" y="207.3" fill="#3A3A38" width="24.1" height="120"/>
<rect x="361.2" y="207.3" fill="#565656" width="5.2" height="120"/>
<polygon fill="#282828" points="365.8,322.5 380.9,322.5 385.4,327.3 361.2,327.3 "/>
<rect x="365.9" y="207.3" fill="#444443" width="14.9" height="115.2"/>
<rect x="456.8" y="207.3" fill="#3A3A38" width="24.1" height="120"/>
<rect x="456.8" y="207.3" fill="#565656" width="5.2" height="120"/>
<polygon fill="#282828" points="461.3,322.5 476.4,322.5 480.9,327.3 456.8,327.3 "/>
<rect x="461.4" y="207.3" fill="#444443" width="14.9" height="115.2"/>
<g>
	<rect x="279.1" y="207.2" fill="#F2F1DF" width="45.7" height="180.9"/>
	<rect x="231.5" y="207.2" fill="#F2F1DF" width="45.7" height="180.9"/>
	<rect x="183.9" y="207.2" fill="#F2F1DF" width="45.7" height="180.9"/>
</g>
<rect x="218.6" y="207.3" fill="#3A3A38" width="24.1" height="120"/>
<rect x="218.6" y="207.3" fill="#565656" width="5.2" height="120"/>
<polygon fill="#282828" points="223,322.5 238.1,322.5 242.7,327.3 218.6,327.3 "/>
<rect x="223.1" y="207.3" fill="#444443" width="14.9" height="115.2"/>
<rect x="266.3" y="207.3" fill="#3A3A38" width="24.1" height="120"/>
<rect x="266.3" y="207.3" fill="#565656" width="5.2" height="120"/>
<polygon fill="#282828" points="270.9,322.5 285.9,322.5 290.4,327.3 266.3,327.3 "/>
<rect x="270.9" y="207.3" fill="#444443" width="14.9" height="115.2"/>
<g>
	<rect x="612.3" y="207.2" fill="#F2F1DF" width="45.7" height="180.9"/>
	<rect x="564.7" y="207.2" fill="#F2F1DF" width="45.7" height="180.9"/>
	<rect x="517" y="207.2" fill="#F2F1DF" width="45.7" height="180.9"/>
</g>
<rect x="551.7" y="207.3" fill="#3A3A38" width="24.1" height="120"/>
<rect x="551.7" y="207.3" fill="#565656" width="5.2" height="120"/>
<polygon fill="#282828" points="556.1,322.5 571.3,322.5 575.8,327.3 551.7,327.3 "/>
<rect x="556.3" y="207.3" fill="#444443" width="14.9" height="115.2"/>
<rect x="599.5" y="207.3" fill="#3A3A38" width="24.1" height="120"/>
<rect x="599.5" y="207.3" fill="#565656" width="5.2" height="120"/>
<polygon fill="#282828" points="604,322.5 619,322.5 623.6,327.3 599.5,327.3 "/>
<rect x="604" y="207.3" fill="#444443" width="14.9" height="115.2"/>
</svg>
